#!OML:ASF E:\Steps\Project 1\Capture day 1\Session 2\Subject.ASF
:FULLY-SPECIFIED
:DEGREES
322
root 9.41398 16.2042 15.893 -159.618 -0.536768 179.471
lowerback -22.0191 -1.04865 -4.3182
upperback 2.15474 -0.275564 -0.109693
thorax 14.9642 -0.506935 2.24523
lowerneck -2.22026 -2.16885 -1.57809
upperneck 16.103 -4.55506 4.6357
head 5.34488 -2.41373 1.42879
rclavicle -1.2921e-015 -2.34566e-014
rhumerus -33.4345 -16.2687 -78.8971
rradius 38.2078
rwrist -3.7934
rhand -7.81692 -52.9714
rfingers 7.12502
rthumb 18.085 -82.1507
lclavicle -1.2921e-015 -2.34566e-014
lhumerus -31.2524 9.74581 77.5322
lradius 21.6354
lwrist -4.11873
lhand -19.7794 -11.3321
lfingers 7.12502
lthumb 6.55282 18.5465
rfemur -21.4775 6.6099 22.0226
rtibia 12.298
rfoot -19.5552 -8.31889
rtoes -34.5296
lfemur -48.9171 -4.55431 -18.769
ltibia 53.4759
lfoot -6.47044 7.10013
ltoes -26.335
323
root 9.4162 16.2006 15.7862 -159.554 -0.427815 179.5
lowerback -21.967 -0.905094 -4.30436
upperback 2.08398 -0.0888278 -0.162426
thorax 14.834 -0.416469 2.24083
lowerneck -2.12752 -2.28175 -1.58812
upperneck 16.0937 -4.70593 4.59444
head 5.33065 -2.49274 1.41079
rclavicle -3.97569e-016 -1.03368e-014
rhumerus -33.3889 -15.9326 -78.9675
rradius 39.0515
rwrist -4.40427
rhand -7.67306 -52.5249
rfingers 7.12502
rthumb 18.2234 -81.6913
lclavicle -3.97569e-016 -1.03368e-014
lhumerus -31.3439 10.095 77.2845
lradius 21.3229
lwrist -4.63804
lhand -19.7471 -11.3553
lfingers 7.12502
lthumb 6.584 18.5223
rfemur -20.9789 6.80042 22.1017
rtibia 12.0052
rfoot -19.7523 -8.46899
rtoes -34.9057
lfemur -48.9081 -4.69519 -18.3627
ltibia 50.3719
lfoot -6.93407 7.74587
ltoes -26.7458
324
root 9.41452 16.1991 15.6768 -159.54 -0.439516 179.448
lowerback -22.1322 -0.839983 -4.35132
upperback 2.15736 0.0278378 -0.193721
thorax 15.011 -0.370335 2.27204
lowerneck -2.21294 -2.32105 -1.58728
upperneck 16.0616 -4.71337 4.43256
head 5.33194 -2.49795 1.35913
rclavicle -4.37326e-015 1.98785e-016
rhumerus -33.0185 -15.5465 -79.062
rradius 39.778
rwrist -5.09419
rhand -7.72324 -51.9753
rfingers 7.12502
rthumb 18.1751 -81.1462
lclavicle -4.37326e-015 1.98785e-016
lhumerus -31.3566 10.2865 77.1755
lradius 21.1842
lwrist -4.92172
lhand -19.5453 -11.395
lfingers 7.12502
lthumb 6.77878 18.4764
rfemur -20.3002 6.73968 22.1262
rtibia 11.4464
rfoot -19.8184 -8.65311
rtoes -36.4197
lfemur -48.7533 -5.09066 -17.9855
ltibia 47.2078
lfoot -7.35117 8.41311
ltoes -27.3122
325
root 9.41071 16.1952 15.5705 -159.481 -0.313203 179.381
lowerback -22.2833 -0.764431 -4.39231
upperback 2.22871 0.156192 -0.224334
thorax 15.1765 -0.318512 2.30519
lowerneck -2.34975 -2.23145 -1.69771
upperneck 15.9767 -4.56925 4.54016
head 5.3286 -2.41769 1.41778
rclavicle 3.27995e-015 1.51076e-014
rhumerus -32.5316 -14.9154 -79.1935
rradius 40.4281
rwrist -5.81588
rhand -7.76591 -51.4084
rfingers 7.12502
rthumb 18.1341 -80.5831
lclavicle 3.27995e-015 1.51076e-014
lhumerus -31.3489 10.6211 77.0622
lradius 20.9831
lwrist -5.34192
lhand -19.4749 -11.6466
lfingers 7.12502
lthumb 6.84671 18.2227
rfemur -19.8205 6.65393 22.0801
rtibia 11.1742
rfoot -20.1108 -8.6054
rtoes -37.1035
lfemur -48.6159 -5.37511 -17.6697
ltibia 44.0888
lfoot -7.36804 9.06528
ltoes -29.2723
326
root 9.40919 16.1886 15.4624 -159.419 -0.183837 179.38
lowerback -22.4517 -0.623728 -4.40151
upperback 2.25336 0.368268 -0.318828
thorax 15.2901 -0.222528 2.276
lowerneck -2.52252 -2.24453 -1.80354
upperneck 16.1221 -4.64508 4.85755
head 5.41493 -2.44001 1.52595
rclavicle -1.49089e-015 -1.17283e-014
rhumerus -32.2906 -14.5872 -79.3447
rradius 41.0847
rwrist -6.38476
rhand -7.62259 -51.398
rfingers 7.12502
rthumb 18.272 -80.5598
lclavicle -1.49089e-015 -1.17283e-014
lhumerus -31.383 10.8694 76.8104
lradius 20.7176
lwrist -5.87141
lhand -19.7235 -11.7972
lfingers 7.12502
lthumb 6.60671 18.0797
rfemur -19.4442 6.63699 22.0997
rtibia 11.1607
rfoot -20.3875 -8.52325
rtoes -36.5759
lfemur -48.3528 -5.57585 -17.2747
ltibia 40.7929
lfoot -7.27242 9.50195
ltoes -30.0293
